<?xml version="1.0" encoding="UTF-8" standalone="no"?>
<!-- Created with Inkscape (http://www.inkscape.org/) -->

<svg
   width="595.95752pt"
   height="210.63438pt"
   viewBox="0 0 210.24057 74.307135"
   version="1.1"
   id="svg5"
   sodipodi:docname="grlogo_black.svg"
   inkscape:version="1.1.2 (b8e25be833, 2022-02-05)"
   xmlns:inkscape="http://www.inkscape.org/namespaces/inkscape"
   xmlns:sodipodi="http://sodipodi.sourceforge.net/DTD/sodipodi-0.dtd"
   xmlns="http://www.w3.org/2000/svg"
   xmlns:svg="http://www.w3.org/2000/svg">
  <sodipodi:namedview
     id="namedview7"
     pagecolor="#ffffff"
     bordercolor="#999999"
     borderopacity="1"
     inkscape:pageshadow="0"
     inkscape:pageopacity="0"
     inkscape:pagecheckerboard="true"
     inkscape:document-units="pt"
     showgrid="false"
     units="pt"
     height="210.63438pt"
     inkscape:zoom="0.69664703"
     inkscape:cx="318.66927"
     inkscape:cy="160.77008"
     inkscape:window-width="1920"
     inkscape:window-height="986"
     inkscape:window-x="-11"
     inkscape:window-y="-11"
     inkscape:window-maximized="1"
     inkscape:current-layer="layer2" />
  <defs
     id="defs2" />
  <g
     inkscape:label="Layer 1"
     inkscape:groupmode="layer"
     id="layer1"
     style="display:none">
    <path
       style="display:inline;fill:#ffffff;stroke:#000000;stroke-width:0.179473px;stroke-linecap:butt;stroke-linejoin:miter;stroke-opacity:1"
       d="M 75.536205,40.089138 91.402683,21.717241 115.85267,7.1728294 l 17.16701,1.020661 1.04042,8.1652856 -7.80319,9.185948 h 19.24786 l -0.2601,18.627052 -18.20744,0.510329 -6.50266,9.696279 -5.72233,0.510329 -0.26011,12.503089 -13.26541,0.255168 -0.26011,-13.523754 -7.282967,2.551655 -17.947331,-8.93078 z"
       id="path26835" />
  </g>
  <g
     inkscape:groupmode="layer"
     id="layer2"
     inkscape:label="Layer 2"
     style="display:inline">
    <text
       xml:space="preserve"
       style="font-style:normal;font-weight:normal;font-size:12.0731px;line-height:1.25;font-family:sans-serif;fill:#000000;fill-opacity:1;stroke:none;stroke-width:0.188643"
       x="98.175407"
       y="40.993534"
       id="text1411"
       transform="scale(1.0333702,0.96770741)"><tspan
         id="tspan1409"
         style="font-style:normal;font-variant:normal;font-weight:normal;font-stretch:normal;font-size:12.0731px;font-family:'ROG Fonts';-inkscape-font-specification:'ROG Fonts';fill:#000000;stroke-width:0.188643"
         x="98.175407"
         y="40.993534"
         sodipodi:role="line">plot</tspan></text>
    <path
       style="fill:#000000;stroke-width:0.188643"
       id="path16964"
       d="m 106.60549,24.067512 c -2.82971,0.461686 -5.58613,1.236034 -8.293534,2.121693 -1.369116,0.476438 -2.697274,1.045186 -3.965391,1.724057 -2.125198,1.137688 -3.535822,1.826275 -5.321502,3.14251 -1.110269,0.93337 -2.164779,1.936517 -3.0869,3.037442 -0.277823,0.331698 -1.114476,1.44381 -1.378654,1.79226 -1.034405,1.566746 -2.147275,3.20394 -2.551426,5.036756 -0.0897,0.406758 -0.114989,0.823667 -0.172487,1.235503 0.05091,0.440567 0.05157,0.888798 0.15263,1.321707 0.457648,1.959919 1.931016,3.618029 3.696486,4.700258 0.50299,0.308337 1.060178,0.531117 1.590265,0.796676 2.042483,0.774382 4.227503,1.214452 6.437754,1.148237 0.845329,-0.02532 1.451243,-0.1321 2.274535,-0.248454 3.654954,-1.011564 5.791164,-3.149389 8.086184,-5.735916 0.97017,-1.120267 1.81994,-2.36209 2.9788,-3.328294 0.19856,-0.165556 0.86425,-0.575268 0.62905,-0.459169 -0.6089,0.300574 -1.17134,0.677313 -1.75702,1.015966 0.3136,-0.01849 0.63009,-0.09941 0.94079,-0.05547 0.89355,0.126297 2.17672,0.682536 2.93614,1.057908 1.77087,0.875317 3.42078,1.978776 5.07242,3.03184 1.3216,0.841054 2.60936,1.727072 3.90212,2.606115 0,0 2.29571,-1.368231 2.29571,-1.368231 v 0 c -1.32844,-0.856288 -2.64977,-1.722394 -3.99412,-2.556838 -0.90186,-0.571313 -2.49815,-1.590011 -3.40948,-2.137039 -1.26564,-0.7597 -3.06638,-1.817298 -4.54579,-2.167941 -0.32038,-0.07593 -0.65941,-0.04229 -0.98911,-0.06341 -1.02175,0.54079 -2.06457,1.048096 -3.06526,1.622385 -0.22305,0.128001 -0.40717,0.308652 -0.59563,0.478555 -1.10016,0.991824 -1.93259,2.211341 -2.89209,3.314812 -0.90629,1.001663 -1.815962,2.015807 -2.881062,2.87698 -0.301424,0.243714 -1.344577,0.709022 -0.947435,0.681514 0.536267,-0.03712 1.01839,-0.381016 1.421468,-0.714343 0.259,-0.214198 -0.646953,0.227562 -0.970429,0.341344 -0.802114,0.1325 -1.469359,0.26224 -2.290728,0.311475 -2.196068,0.131637 -4.374811,-0.257541 -6.41473,-1.013709 -0.516678,-0.255574 -1.059609,-0.469234 -1.550052,-0.766724 -1.708855,-1.036561 -3.142791,-2.641819 -3.548084,-4.54599 -0.0889,-0.41768 -0.07484,-0.848905 -0.112263,-1.273355 0.06536,-0.400755 0.0973,-0.807549 0.196064,-1.202254 0.451607,-1.804924 1.560189,-3.425666 2.605211,-4.968222 1.318917,-1.731046 2.735,-3.399603 4.497508,-4.759857 0.30647,-0.217642 0.603892,-0.446921 0.919401,-0.652923 0.324595,-0.211927 1.382128,-0.694085 0.999426,-0.599898 -0.471665,0.116078 -0.85003,0.447942 -1.277205,0.668259 -0.401351,0.207003 0.792492,-0.431652 1.199739,-0.62831 1.100625,-0.531483 1.608028,-0.700109 2.764881,-1.147713 2.639884,-0.886757 5.33504,-1.673705 8.1165,-2.059998 0,0 2.2973,-1.610158 2.2973,-1.610158 z" />
    <path
       style="fill:#00ff00;stroke-width:0.188643"
       id="path16966"
       d="m 103.92135,29.765231 c 1.83488,-0.685082 3.58807,-1.563621 5.29497,-2.491519 3.81259,-2.072583 2.63588,-1.353584 5.00372,-2.890578 1.60302,-1.101714 3.05759,-2.383397 4.25236,-3.875723 0.6277,-0.784008 0.99528,-1.381042 1.53976,-2.206794 0.94468,-1.350334 1.60596,-2.835761 1.94653,-4.414871 0.0215,-0.143002 0.043,-0.285996 0.0645,-0.428996 0,0 -2.57762,1.18824 -2.57762,1.18824 v 0 c -0.0199,0.136453 -0.0399,0.272907 -0.0598,0.409361 -0.32004,1.531883 -0.96726,2.9627 -1.86872,4.278115 -0.56853,0.860317 -0.86245,1.351451 -1.53111,2.165451 -1.20458,1.466398 -2.67126,2.717515 -4.2644,3.804449 -0.44034,0.280965 -0.94273,0.491487 -1.32103,0.84289 -0.23528,0.218544 1.16229,-0.595656 0.87997,-0.433178 -1.60837,0.925615 -3.32286,1.703524 -5.05411,2.402501 0,0 -2.30515,1.650652 -2.30515,1.650652 z" />
    <path
       style="fill:#000000;stroke-width:0.188643"
       id="path16968"
       d="m 105.48132,48.596289 c 0.0376,1.616126 0.046,3.233073 0.0469,4.849587 -0.002,1.686721 -0.0103,3.373439 -0.0209,5.060133 -0.008,0.915122 -0.0136,1.830208 -0.0184,2.745335 0,0 2.55185,-1.217605 2.55185,-1.217605 v 0 c -0.004,-0.909298 -0.0101,-1.818554 -0.0184,-2.727845 -0.0106,-1.680051 -0.0195,-3.360116 -0.0209,-5.040201 7.4e-4,-1.63143 0.01,-3.26328 0.0469,-4.894345 0,0 -2.56721,1.224941 -2.56721,1.224941 z" />
  </g>
</svg>
